<svg width="44" height="44" viewBox="0 0 44 44" fill="none" xmlns="http://www.w3.org/2000/svg">
<path d="M3.60156 10.8L16.045 17.8506C20.6324 20.4498 22.5707 20.4498 27.1582 17.8506L39.6016 10.8" stroke="#348FDA" stroke-width="2.7" stroke-linejoin="round"/>
<path d="M3.62995 24.2561C3.74761 29.7742 3.80646 32.5331 5.84249 34.577C7.87851 36.6207 10.7122 36.6918 16.3795 36.8342C19.8723 36.922 23.3308 36.922 26.8237 36.8342C32.491 36.6918 35.3246 36.6207 37.3607 34.577C39.3967 32.5331 39.4556 29.7742 39.5731 24.2561C39.6111 22.4819 39.6111 20.7182 39.5731 18.944C39.4556 13.426 39.3967 10.667 37.3607 8.62324C35.3246 6.57946 32.491 6.50828 26.8237 6.36588C23.3308 6.27811 19.8723 6.27811 16.3794 6.36586C10.7122 6.50824 7.87851 6.57943 5.84247 8.62322C3.80644 10.667 3.74761 13.426 3.62993 18.944C3.59209 20.7182 3.59211 22.4819 3.62995 24.2561Z" stroke="#348FDA" stroke-width="2.7" stroke-linejoin="round"/>
</svg>
